<?xml version="1.0" encoding="UTF-8" standalone="no"?>
<svg
   xmlns:dc="http://purl.org/dc/elements/1.1/"
   xmlns:cc="http://creativecommons.org/ns#"
   xmlns:rdf="http://www.w3.org/1999/02/22-rdf-syntax-ns#"
   xmlns:svg="http://www.w3.org/2000/svg"
   xmlns="http://www.w3.org/2000/svg"
   xmlns:sodipodi="http://sodipodi.sourceforge.net/DTD/sodipodi-0.dtd"
   xmlns:inkscape="http://www.inkscape.org/namespaces/inkscape"
   id="Layer_1"
   data-name="Layer 1"
   viewBox="0 0 26.500008 25.85"
   version="1.1"
   sodipodi:docname="nuget-logo-trim.svg"
   width="26.500008"
   height="25.85"
   inkscape:version="0.92.3 (2405546, 2018-03-11)">
  <metadata
     id="metadata26">
    <rdf:RDF>
      <cc:Work
         rdf:about="">
        <dc:format>image/svg+xml</dc:format>
        <dc:type
           rdf:resource="http://purl.org/dc/dcmitype/StillImage" />
        <dc:title>Logo-Header-5</dc:title>
      </cc:Work>
    </rdf:RDF>
  </metadata>
  <sodipodi:namedview
     pagecolor="#ffffff"
     bordercolor="#666666"
     borderopacity="1"
     objecttolerance="10"
     gridtolerance="10"
     guidetolerance="10"
     inkscape:pageopacity="0"
     inkscape:pageshadow="2"
     inkscape:window-width="1377"
     inkscape:window-height="836"
     id="namedview24"
     showgrid="false"
     fit-margin-top="0"
     fit-margin-left="0"
     fit-margin-right="0"
     fit-margin-bottom="0"
     inkscape:zoom="3.4536082"
     inkscape:cx="11.037313"
     inkscape:cy="11.16"
     inkscape:window-x="63"
     inkscape:window-y="27"
     inkscape:window-maximized="1"
     inkscape:current-layer="Layer_1" />
  <defs
     id="defs4">
    <style
       id="style2">.cls-1{fill:#fff;stroke:#004880;}</style>
  </defs>
  <title
     id="title6">Logo-Header-5</title>
  <path
     class="cls-1"
     d="M 19.12,4.8400001 H 12.44 A 6.91,6.91 0 0 0 5.4999999,11.76 v 6.68 A 6.91,6.91 0 0 0 12.41,25.35 h 6.68 A 6.91,6.91 0 0 0 26,18.43 V 11.76 A 6.91,6.91 0 0 0 19.12,4.8400001 Z M 12.37,12.31 A 2,2 0 1 1 12.6,9.7900001 2,2 0 0 1 12.37,12.31 Z M 19,22 A 3.5,3.5 0 1 1 22.5,18.5 3.5,3.5 0 0 1 19,22 Z"
     id="path8"
     inkscape:connector-curvature="0"
     style="fill:#ffffff;stroke:#004880" />
  <circle
     id="path-2"
     class="cls-1"
     cx="3.25"
     cy="3.25"
     r="2"
     style="fill:#ffffff;stroke:#004880" />
  <circle
     class="cls-1"
     cx="3.25"
     cy="3.25"
     r="2.75"
     id="circle17"
     style="fill:#ffffff;stroke:#004880" />
</svg>
